<?xml version="1.0" encoding="UTF-8" standalone="no"?>
<svg xmlns="http://www.w3.org/2000/svg" viewBox="0 0 400 400">
  <defs>
    <linearGradient id="coin-gradient" x1="0%" y1="0%" x2="100%" y2="100%">
      <stop offset="0%" stop-color="#FFCC00" />
      <stop offset="50%" stop-color="#FFB700" />
      <stop offset="100%" stop-color="#FF9900" />
    </linearGradient>
    <linearGradient id="coin-edge" x1="0%" y1="0%" x2="100%" y2="100%">
      <stop offset="0%" stop-color="#CC9900" />
      <stop offset="100%" stop-color="#AA7700" />
    </linearGradient>
    <filter id="coin-shadow" x="-20%" y="-20%" width="140%" height="140%">
      <feGaussianBlur stdDeviation="5" result="blur" />
      <feComposite in="SourceGraphic" in2="blur" operator="over" />
    </filter>
    <filter id="coin-glow" x="-30%" y="-30%" width="160%" height="160%">
      <feGaussianBlur stdDeviation="10" result="blur" />
      <feComposite in="SourceGraphic" in2="blur" operator="over" />
    </filter>
  </defs>
  
  <!-- Background Glow -->
  <circle cx="200" cy="200" r="150" fill="#FFCC00" fill-opacity="0.2" filter="url(#coin-glow)" />
  
  <!-- Coin Edge (slightly smaller in front to give 3D effect) -->
  <circle cx="200" cy="200" r="140" fill="url(#coin-edge)" stroke="#AA8800" stroke-width="2" />
  
  <!-- Main Coin Face -->
  <circle cx="200" cy="200" r="130" fill="url(#coin-gradient)" stroke="#FFCC00" stroke-width="3" />
  
  <!-- Bitcoin Symbol Pattern -->
  <g transform="translate(200, 200) scale(0.8)">
    <circle cx="0" cy="0" r="80" fill="none" stroke="#AA7700" stroke-width="10" />
    
    <!-- Bitcoin Symbol -->
    <g transform="translate(-40, -40) scale(2)">
      <path d="M38,18 L42,18 C45.5,18 48,15.5 48,12 C48,8.5 45.5,6 42,6 L30,6 L30,18 L38,18 Z" fill="#CC9900" />
      <path d="M38,30 L44,30 C47.5,30 50,27.5 50,24 C50,20.5 47.5,18 44,18 L30,18 L30,30 L38,30 Z" fill="#CC9900" />
      <path d="M30,12 L30,6 L24,6 L24,12 L20,12 L20,6 L14,6 L14,12 L8,12 L8,18 L14,18 L14,30 L8,30 L8,36 L14,36 L14,42 L20,42 L20,36 L24,36 L24,42 L30,42 L30,36 L38,36 C45,36 50,31 50,24 C50,20 47,17 44,16 C45,15 48,13 48,9 C48,5 45,0 38,0 L14,0 L14,6 L30,6 Z" fill="#AA7700" />
      <path d="M24,18 L38,18 L38,30 L24,30 Z" fill="#FFAA00" />
    </g>
  </g>
  
  <!-- Highlight/Shine -->
  <path d="M150,120 C170,100 230,100 250,120 C240,140 160,140 150,120 Z" fill="#FFFFFF" fill-opacity="0.5" />
  
  <!-- Edge Detail -->
  <g transform="translate(200, 200)">
    <circle cx="0" cy="0" r="140" fill="none" stroke="#FFCC00" stroke-dasharray="10,5" stroke-width="3" />
  </g>
  
  <!-- More Edge Details around the coin -->
  <g transform="translate(200, 200)">
    <g transform="rotate(30)">
      <rect x="-145" y="-3" width="10" height="6" fill="#CC9900" />
    </g>
    <g transform="rotate(60)">
      <rect x="-145" y="-3" width="10" height="6" fill="#CC9900" />
    </g>
    <g transform="rotate(90)">
      <rect x="-145" y="-3" width="10" height="6" fill="#CC9900" />
    </g>
    <g transform="rotate(120)">
      <rect x="-145" y="-3" width="10" height="6" fill="#CC9900" />
    </g>
    <g transform="rotate(150)">
      <rect x="-145" y="-3" width="10" height="6" fill="#CC9900" />
    </g>
    <g transform="rotate(180)">
      <rect x="-145" y="-3" width="10" height="6" fill="#CC9900" />
    </g>
    <g transform="rotate(210)">
      <rect x="-145" y="-3" width="10" height="6" fill="#CC9900" />
    </g>
    <g transform="rotate(240)">
      <rect x="-145" y="-3" width="10" height="6" fill="#CC9900" />
    </g>
    <g transform="rotate(270)">
      <rect x="-145" y="-3" width="10" height="6" fill="#CC9900" />
    </g>
    <g transform="rotate(300)">
      <rect x="-145" y="-3" width="10" height="6" fill="#CC9900" />
    </g>
    <g transform="rotate(330)">
      <rect x="-145" y="-3" width="10" height="6" fill="#CC9900" />
    </g>
    <g transform="rotate(0)">
      <rect x="-145" y="-3" width="10" height="6" fill="#CC9900" />
    </g>
  </g>
</svg>