<?xml version="1.0" encoding="UTF-8" standalone="no"?>
<svg xmlns="http://www.w3.org/2000/svg" viewBox="0 0 400 400">
  <circle cx="200" cy="200" r="180" fill="#F7931A"/>
  <path d="M245 177.4c3.8-25.2-15.4-38.7-41.4-47.7l8.4-34-20.6-5.2-8.2 33c-5.4-1.4-11-2.6-16.6-3.8l8.4-33.2-20.6-5.2-8.4 34c-4.4-1-8.8-2-13-3l0-0.2-28.4-7.2-5.4 22c0 0 15.4 3.6 15 3.8 8.4 2 10 7.4 9.6 11.6l-9.8 39.2c0.6 0.2 1.4 0.4 2.2 0.8-0.6-0.2-1.4-0.4-2-0.6l-13.6 54.6c-1 2.4-3.6 6.2-9.4 4.8 0.2 0.4-15.2-3.8-15.2-3.8l-10.4 24 26.8 6.6c5 1.2 9.8 2.6 14.6 3.8l-8.6 34.6 20.6 5.2 8.4-34c5.6 1.4 11.2 2.8 16.6 4l-8.4 33.8 20.6 5.2 8.6-34.4c35.2 6.6 61.6 4 72.6-27.8 9-25.6-0.4-40.4-19-50 13.4-3.2 23.6-12 26.2-30.6zM198.8 279.6c-6.4 25.6-49.6 11.8-63.6 8.2l11.4-45.4c14 3.4 58.8 10.4 52.2 37.2zM205.2 176.8c-5.8 23.2-41.6 11.4-53.2 8.6l10.2-41.4c11.6 2.8 48.8 8.4 43 32.8z" fill="white"/>
</svg>