<?xml version="1.0" encoding="UTF-8" standalone="no"?>
<svg xmlns="http://www.w3.org/2000/svg" width="256" height="256" viewBox="0 0 256 256">
  <circle cx="128" cy="128" r="120" fill="#ffcc00" opacity="0.5"/>
  <path d="M168.5 115.25c3.75-6.5-2.25-10-6.5-11s-19.25-2.75-19.25-2.75v-13s5 1 4.25-3.5-3.5-8.75-8.75-7v-13h-15v12.5c-3.75 0-8 0-12 0.25v-12.75h-15v13.75c-12.5 0.5-23.5 3.5-24.25 18.5 0.75 11.75 8.25 15.25 15 17 0 0 7.25 1.75 15.25 1.75V140c-9.5 0-18.5-1.5-19.25 11.25-0.75 11.75 9.5 15.75 19.25 16V180h15v-13c4 0 8 0.25 12 0.25V180h15v-13.25s22.75-2 27.25-27c4.25-24.25-21.5-24.5-21.5-24.5h20.5zM128 95c6.25 0 27.5-1.75 27.5 9.75s-21.25 9.5-27.5 9.5V95z m0 61.25V138.5c7.5 0 31.25-1.75 31.25 9.25 0 10.75-23.75 8.5-31.25 8.5z" fill="#ffcc00"/>
</svg>